<svg width="88" height="45" viewBox="0 0 88 45" fill="none" xmlns="http://www.w3.org/2000/svg">
<path d="M22.8 32.16C22.704 32.544 22.544 33.152 22.32 33.984C22.128 34.816 21.904 35.712 21.648 36.672C21.424 37.632 21.184 38.56 20.928 39.456C20.704 40.352 20.528 41.056 20.4 41.568C20.24 42.08 20.192 42.336 20.256 42.336C20.288 42.336 20.528 42.048 20.976 41.472C21.424 40.896 21.904 40.272 22.416 39.6C22.64 39.344 22.992 38.848 23.472 38.112C23.952 37.408 24.416 36.688 24.864 35.952C26.304 33.712 27.568 31.776 28.656 30.144C29.776 28.512 30.816 27.056 31.776 25.776C32.736 24.464 33.664 23.264 34.56 22.176C35.456 21.088 36.416 19.968 37.44 18.816C38.016 18.144 38.592 17.536 39.168 16.992C39.776 16.416 40.336 15.92 40.848 15.504C41.392 15.056 41.872 14.72 42.288 14.496C42.704 14.24 43.04 14.112 43.296 14.112C43.616 14.112 43.84 14.256 43.968 14.544C44.032 14.672 44.016 14.896 43.92 15.216C43.856 15.376 43.76 15.568 43.632 15.792C43.536 16.016 43.424 16.24 43.296 16.464C43.168 16.656 43.056 16.816 42.96 16.944C42.864 17.072 42.8 17.12 42.768 17.088C42.736 17.056 42.736 16.96 42.768 16.8C42.832 16.64 42.896 16.464 42.96 16.272C43.12 15.728 43.216 15.376 43.248 15.216C43.28 15.024 43.264 14.928 43.2 14.928C43.104 14.928 42.88 15.04 42.528 15.264C42.176 15.488 41.776 15.776 41.328 16.128C39.888 17.248 38.304 18.736 36.576 20.592C34.848 22.448 33.168 24.528 31.536 26.832C30.992 27.568 30.528 28.208 30.144 28.752C29.76 29.296 29.36 29.888 28.944 30.528C28.528 31.168 28.048 31.904 27.504 32.736C26.992 33.568 26.336 34.608 25.536 35.856C24.96 36.784 24.384 37.68 23.808 38.544C23.264 39.44 22.752 40.224 22.272 40.896C21.792 41.6 21.376 42.192 21.024 42.672C20.672 43.152 20.416 43.472 20.256 43.632C20.096 43.792 19.904 43.872 19.68 43.872C19.488 43.904 19.312 43.84 19.152 43.68C18.896 43.456 18.816 42.992 18.912 42.288C18.944 42.096 18.976 41.888 19.008 41.664C19.072 41.472 19.152 41.2 19.248 40.848C19.344 40.496 19.472 40.032 19.632 39.456C19.824 38.912 20.064 38.192 20.352 37.296C20.672 36.304 20.944 35.44 21.168 34.704C21.424 33.936 21.632 33.264 21.792 32.688C21.952 32.08 22.096 31.536 22.224 31.056C22.384 30.544 22.528 30.032 22.656 29.52C22.944 28.4 23.184 27.296 23.376 26.208C23.6 25.12 23.776 24.112 23.904 23.184C24.032 22.256 24.112 21.424 24.144 20.688C24.176 19.952 24.16 19.36 24.096 18.912C23.808 17.312 22.912 16.576 21.408 16.704C20.768 16.768 20.032 16.944 19.2 17.232C18.368 17.52 17.456 17.92 16.464 18.432C15.504 18.944 14.496 19.536 13.44 20.208C12.384 20.88 11.328 21.616 10.272 22.416C9.92 22.672 9.584 22.928 9.264 23.184C8.976 23.408 8.688 23.648 8.4 23.904C8.144 24.128 7.856 24.384 7.536 24.672C7.248 24.96 6.928 25.28 6.576 25.632C5.392 26.784 4.4 27.904 3.6 28.992C2.832 30.048 2.288 31.008 1.968 31.872C1.648 32.8 1.648 33.568 1.968 34.176C2.032 34.304 2.112 34.432 2.208 34.56C2.304 34.688 2.4 34.784 2.496 34.848C2.88 35.2 3.424 35.488 4.128 35.712C4.832 35.904 5.584 36.032 6.384 36.096C7.216 36.16 8.048 36.144 8.88 36.048C9.712 35.952 10.464 35.776 11.136 35.52C11.488 35.392 11.712 35.328 11.808 35.328C11.936 35.296 12.032 35.312 12.096 35.376C12.352 35.664 12.128 35.968 11.424 36.288C10.944 36.544 10.352 36.72 9.648 36.816C8.944 36.912 8.208 36.944 7.44 36.912C6.704 36.88 5.968 36.784 5.232 36.624C4.496 36.464 3.84 36.24 3.264 35.952C1.184 34.992 0.784 33.248 2.064 30.72C2.672 29.568 3.552 28.352 4.704 27.072C5.856 25.76 7.136 24.496 8.544 23.28C9.984 22.064 11.504 20.928 13.104 19.872C14.704 18.816 16.272 17.952 17.808 17.28C21.264 15.808 23.408 15.936 24.24 17.664C24.432 18.016 24.56 18.4 24.624 18.816C24.688 19.232 24.704 19.808 24.672 20.544C24.672 23.104 24.048 26.976 22.8 32.16ZM35.7044 26.88C35.4804 26.976 35.3044 26.992 35.1764 26.928C34.9204 26.864 34.7764 26.72 34.7444 26.496C34.7444 26.24 34.8564 26 35.0804 25.776C35.2404 25.616 35.4004 25.536 35.5604 25.536C35.8484 25.472 36.0404 25.616 36.1364 25.968C36.1684 26.128 36.1364 26.304 36.0404 26.496C35.9764 26.688 35.8644 26.816 35.7044 26.88ZM33.5444 30.768C33.0964 31.472 32.6644 32.176 32.2484 32.88C31.8644 33.584 31.6244 34.112 31.5284 34.464C31.4644 34.688 31.4324 34.832 31.4324 34.896C31.4324 34.96 31.4644 35.04 31.5284 35.136C31.8484 35.616 32.6324 35.424 33.8804 34.56C34.3924 34.24 35.0324 33.744 35.8004 33.072C36.6004 32.368 37.4004 31.616 38.2004 30.816C38.4564 30.56 38.6644 30.352 38.8244 30.192C39.0164 30.032 39.1284 29.952 39.1604 29.952C39.2244 29.952 39.1924 30.048 39.0644 30.24C38.9684 30.432 38.6964 30.752 38.2484 31.2C37.8644 31.648 37.4484 32.096 37.0004 32.544C36.5524 32.96 36.1044 33.36 35.6564 33.744C35.2404 34.128 34.8244 34.48 34.4084 34.8C34.0244 35.088 33.6884 35.312 33.4004 35.472C32.8884 35.76 32.4724 35.936 32.1524 36C31.8324 36.064 31.5284 36.016 31.2404 35.856C30.6324 35.568 30.4244 34.896 30.6164 33.84C30.6804 33.584 30.8244 33.248 31.0484 32.832C31.2404 32.384 31.4644 31.936 31.7204 31.488C31.9764 31.04 32.2484 30.608 32.5364 30.192C32.8244 29.776 33.0804 29.456 33.3044 29.232C33.5284 29.008 33.7204 28.896 33.8804 28.896C34.0084 28.896 34.1044 28.944 34.1684 29.04C34.2964 29.168 34.3124 29.328 34.2164 29.52C34.1524 29.712 33.9284 30.128 33.5444 30.768ZM48.4713 30.144C48.3113 30.304 48.0713 30.48 47.7513 30.672C47.4313 30.864 47.0633 31.072 46.6473 31.296C46.2633 31.488 45.8473 31.68 45.3993 31.872C44.9513 32.032 44.5353 32.176 44.1513 32.304C43.7993 32.432 43.5593 32.528 43.4313 32.592C43.3353 32.656 43.2553 32.736 43.1913 32.832C42.8393 33.472 42.2953 34.112 41.5593 34.752C40.8553 35.36 40.2153 35.776 39.6393 36C39.3833 36.096 39.0473 36.144 38.6313 36.144C38.2153 36.176 37.9113 36.144 37.7193 36.048C37.5593 35.984 37.4153 35.888 37.2873 35.76C37.1593 35.6 37.0953 35.44 37.0953 35.28C37.0953 35.184 37.0633 35.168 36.9993 35.232C36.9353 35.296 36.8233 35.456 36.6633 35.712C36.4713 35.968 36.3433 36.144 36.2793 36.24C36.1833 36.336 36.0873 36.4 35.9913 36.432C35.8313 36.432 35.7513 36.4 35.7513 36.336C35.6873 36.24 35.7673 35.92 35.9913 35.376C36.1833 34.8 36.4393 34.144 36.7593 33.408C37.2393 32.32 37.8473 31.104 38.5833 29.76C39.3513 28.416 40.1513 27.104 40.9833 25.824C41.8153 24.512 42.6313 23.296 43.4313 22.176C44.2633 21.056 44.9993 20.176 45.6393 19.536C45.8633 19.312 46.0233 19.184 46.1193 19.152C46.2153 19.088 46.3273 19.056 46.4553 19.056C46.8073 19.056 46.9833 19.216 46.9833 19.536C46.9833 19.664 46.7433 19.984 46.2633 20.496C45.1753 21.616 44.0233 23.072 42.8073 24.864C41.5913 26.656 40.2633 28.752 38.8233 31.152C38.4073 31.856 38.0713 32.464 37.8153 32.976C37.5273 33.456 37.4153 33.664 37.4793 33.6C37.5753 33.504 37.8633 33.136 38.3433 32.496C38.7913 31.888 39.3033 31.28 39.8793 30.672C40.4873 30.064 40.9833 29.632 41.3673 29.376C42.3273 28.768 43.0633 28.656 43.5753 29.04C44.1833 29.52 44.2153 30.48 43.6713 31.92C43.6393 32.016 43.7353 32.032 43.9593 31.968C44.2153 31.904 44.5193 31.808 44.8713 31.68C45.2553 31.52 45.6553 31.344 46.0713 31.152C46.5193 30.96 46.9353 30.752 47.3193 30.528C47.5753 30.4 47.7993 30.288 47.9913 30.192C48.2153 30.064 48.3593 30 48.4233 30L48.6633 29.904L48.4713 30.144ZM42.0873 32.784L41.7513 32.832C41.3353 32.896 40.8393 33.024 40.2633 33.216C39.6873 33.376 39.2713 33.52 39.0153 33.648C38.8553 33.712 38.6793 33.808 38.4873 33.936C38.2953 34.064 38.1353 34.208 38.0073 34.368C37.8153 34.528 37.7033 34.656 37.6713 34.752C37.6073 34.816 37.5753 34.928 37.5753 35.088C37.5753 35.28 37.6713 35.408 37.8633 35.472C38.1833 35.664 38.5993 35.648 39.1113 35.424C39.2393 35.392 39.3833 35.328 39.5433 35.232C39.7353 35.104 39.9113 34.992 40.0713 34.896C40.3273 34.704 40.6633 34.416 41.0793 34.032C41.4953 33.648 41.7833 33.328 41.9433 33.072L42.0873 32.784ZM42.6153 32.016C42.8073 31.728 42.9673 31.408 43.0953 31.056C43.2233 30.704 43.2873 30.4 43.2873 30.144C43.2873 29.952 43.2713 29.824 43.2393 29.76C43.2073 29.664 43.1593 29.584 43.0953 29.52C43.0313 29.488 42.9673 29.456 42.9033 29.424C42.8713 29.392 42.8233 29.376 42.7593 29.376C42.5673 29.376 42.2633 29.472 41.8473 29.664C41.5913 29.792 41.3673 29.936 41.1753 30.096C40.9833 30.256 40.7113 30.512 40.3593 30.864C40.1993 31.056 39.9913 31.28 39.7353 31.536C39.5113 31.792 39.2873 32.048 39.0633 32.304C38.8713 32.56 38.6793 32.8 38.4873 33.024C38.2953 33.248 38.1673 33.424 38.1033 33.552C38.1033 33.584 38.1993 33.552 38.3913 33.456C38.5513 33.328 38.8393 33.184 39.2553 33.024C39.8953 32.768 40.7433 32.56 41.7993 32.4C42.0873 32.336 42.2793 32.288 42.3753 32.256C42.4713 32.224 42.5513 32.144 42.6153 32.016ZM47.8835 32.496C47.2435 33.872 47.2275 34.656 47.8355 34.848C48.3155 35.008 49.1475 34.752 50.3315 34.08C51.5475 33.408 52.9715 32.384 54.6035 31.008C55.1155 30.592 55.4515 30.336 55.6115 30.24C55.8035 30.112 55.8995 30.096 55.8995 30.192C55.8995 30.224 55.7715 30.368 55.5155 30.624C55.2595 30.848 54.9395 31.136 54.5555 31.488C54.2035 31.808 53.8195 32.144 53.4035 32.496C52.9875 32.848 52.6355 33.136 52.3475 33.36C51.8035 33.776 51.2435 34.16 50.6675 34.512C50.0915 34.864 49.6275 35.12 49.2755 35.28C49.0195 35.408 48.8115 35.488 48.6515 35.52C48.4915 35.552 48.2835 35.568 48.0275 35.568C47.6755 35.6 47.3715 35.568 47.1155 35.472C46.8595 35.344 46.6515 35.104 46.4915 34.752C46.3315 34.432 46.2835 34.032 46.3475 33.552C46.4115 33.072 46.5715 32.576 46.8275 32.064C47.0835 31.552 47.4035 31.072 47.7875 30.624C48.2035 30.144 48.6675 29.728 49.1795 29.376C49.4675 29.184 49.7555 29.024 50.0435 28.896C50.3635 28.768 50.6195 28.704 50.8115 28.704C50.9715 28.704 51.1315 28.8 51.2915 28.992C51.4835 29.184 51.5795 29.36 51.5795 29.52C51.5795 29.68 51.4675 29.952 51.2435 30.336C51.0195 30.688 50.7635 31.008 50.4755 31.296C49.5795 32.192 48.8755 32.464 48.3635 32.112L48.1235 31.92L47.8835 32.496ZM49.8035 29.808C49.7075 29.872 49.5955 29.984 49.4675 30.144C49.3395 30.272 49.2115 30.416 49.0835 30.576C48.9555 30.704 48.8435 30.832 48.7475 30.96C48.6515 31.088 48.6035 31.168 48.6035 31.2C48.6035 31.264 48.6995 31.264 48.8915 31.2C49.1155 31.136 49.3555 31.04 49.6115 30.912C49.9315 30.72 50.2515 30.464 50.5715 30.144C50.8915 29.824 51.0515 29.584 51.0515 29.424C51.0515 29.264 51.0195 29.184 50.9555 29.184C50.8595 29.216 50.6835 29.296 50.4275 29.424C50.2035 29.52 49.9955 29.648 49.8035 29.808ZM57.2924 32.64C56.7804 32.896 56.4604 33.072 56.3324 33.168C56.2364 33.264 56.2044 33.36 56.2364 33.456C56.2684 33.52 56.2844 33.632 56.2844 33.792C56.3164 33.92 56.3484 34.064 56.3804 34.224C56.4764 34.896 56.3804 35.504 56.0924 36.048C55.8364 36.592 55.4044 37.008 54.7964 37.296C54.0924 37.584 53.4044 37.712 52.7324 37.68C52.0924 37.584 51.6284 37.392 51.3404 37.104C51.1484 36.944 51.0524 36.752 51.0524 36.528C51.0524 36.336 51.1004 36.16 51.1964 36C51.2604 35.84 51.4204 35.664 51.6764 35.472C51.9004 35.28 52.2204 35.056 52.6364 34.8C53.0524 34.544 53.6124 34.224 54.3164 33.84L55.1324 33.36L54.8924 32.592C54.5404 31.632 54.4764 30.784 54.7004 30.048C54.8604 29.408 55.1644 28.896 55.6124 28.512C56.0604 28.096 56.5564 27.872 57.1004 27.84C57.4524 27.84 57.7084 27.952 57.8684 28.176C58.0284 28.368 58.0444 28.624 57.9164 28.944C57.8204 29.168 57.6924 29.296 57.5324 29.328C57.3724 29.36 57.2924 29.264 57.2924 29.04C57.2924 28.912 57.1804 28.896 56.9564 28.992C56.7644 29.088 56.5724 29.248 56.3804 29.472C56.0284 29.856 55.8204 30.288 55.7564 30.768C55.7244 31.216 55.7884 31.808 55.9484 32.544L56.0444 32.88L56.7644 32.496C56.9564 32.368 57.3724 32.128 58.0124 31.776C58.6524 31.424 59.3244 31.04 60.0284 30.624C60.7644 30.208 61.2284 29.952 61.4204 29.856C61.6444 29.76 61.7724 29.712 61.8044 29.712C61.9964 29.712 61.7884 29.92 61.1804 30.336C60.6044 30.688 59.9484 31.072 59.2124 31.488C58.5084 31.904 57.8684 32.288 57.2924 32.64ZM55.4684 35.136C55.4684 34.912 55.4524 34.624 55.4204 34.272C55.3884 33.92 55.3404 33.744 55.2764 33.744C55.2444 33.744 55.1324 33.808 54.9404 33.936C54.7484 34.032 54.5244 34.16 54.2684 34.32C54.0124 34.48 53.7564 34.64 53.5004 34.8C53.2444 34.96 53.0204 35.104 52.8284 35.232C51.9644 35.776 51.5324 36.192 51.5324 36.48C51.5324 36.704 51.8044 36.848 52.3484 36.912C52.8604 37.008 53.3404 36.992 53.7884 36.864C54.8124 36.512 55.3724 35.936 55.4684 35.136Z" fill="white"/>
<path d="M5.28 20L1.776 6.224C1.6 5.504 1.44 4.952 1.296 4.568C1.168 4.184 1.04 3.904 0.912 3.728C0.8 3.552 0.688 3.456 0.576 3.44C0.464 3.408 0.352 3.392 0.24 3.392L0.264 3.248H6.696V3.392C6.568 3.392 6.456 3.408 6.36 3.44C6.28 3.456 6.224 3.552 6.192 3.728C6.16 3.904 6.168 4.184 6.216 4.568C6.28 4.952 6.4 5.504 6.576 6.224V6.2L9.432 17.504L10.488 13.304C10.648 12.648 10.672 12.032 10.56 11.456C10.464 10.864 10.296 10.296 10.056 9.752C9.832 9.192 9.584 8.656 9.312 8.144C9.04 7.616 8.824 7.088 8.664 6.56C8.504 6.032 8.44 5.496 8.472 4.952C8.504 4.408 8.712 3.84 9.096 3.248H14.664L14.688 3.392C14.56 3.392 14.44 3.408 14.328 3.44C14.232 3.456 14.12 3.552 13.992 3.728C13.88 3.904 13.752 4.184 13.608 4.568C13.464 4.952 13.304 5.504 13.128 6.224L9.648 20H5.28ZM21.6017 20H15.1697V19.832C15.2817 19.832 15.3857 19.824 15.4817 19.808C15.5937 19.776 15.6817 19.672 15.7457 19.496C15.8257 19.32 15.8817 19.04 15.9137 18.656C15.9617 18.272 15.9857 17.728 15.9857 17.024V6.2C15.9857 5.496 15.9617 4.952 15.9137 4.568C15.8817 4.184 15.8257 3.904 15.7457 3.728C15.6817 3.552 15.5937 3.456 15.4817 3.44C15.3857 3.408 15.2817 3.392 15.1697 3.392V3.248H21.6017V3.392C21.4737 3.392 21.3617 3.408 21.2657 3.44C21.1697 3.456 21.0817 3.552 21.0017 3.728C20.9377 3.904 20.8817 4.184 20.8337 4.568C20.8017 4.952 20.7857 5.504 20.7857 6.224V17.024C20.7857 17.728 20.8017 18.272 20.8337 18.656C20.8817 19.04 20.9377 19.32 21.0017 19.496C21.0817 19.672 21.1697 19.776 21.2657 19.808C21.3617 19.824 21.4737 19.832 21.6017 19.832V20ZM23.3798 8.072C23.3798 8.696 23.5078 9.376 23.7638 10.112C24.0358 10.848 24.3558 11.6 24.7238 12.368C25.1078 13.136 25.5078 13.896 25.9238 14.648C26.3558 15.4 26.7318 16.12 27.0518 16.808C27.3718 17.48 27.6038 18.096 27.7478 18.656C27.8918 19.2 27.8758 19.648 27.6998 20H22.0838V19.832C22.1958 19.832 22.2998 19.824 22.3958 19.808C22.5078 19.776 22.5958 19.672 22.6598 19.496C22.7398 19.32 22.7958 19.04 22.8278 18.656C22.8758 18.272 22.8998 17.728 22.8998 17.024V6.224C22.8998 5.504 22.8758 4.952 22.8278 4.568C22.7958 4.184 22.7398 3.904 22.6598 3.728C22.5958 3.552 22.5078 3.456 22.3958 3.44C22.2998 3.408 22.1958 3.392 22.0838 3.392V3.248H27.7958L31.7558 15.92C31.9158 16.432 32.0838 16.768 32.2598 16.928C32.4518 17.088 32.6198 17.112 32.7638 17C32.9078 16.888 33.0278 16.672 33.1238 16.352C33.2198 16.016 33.2678 15.616 33.2678 15.152C33.2678 14.528 33.1478 13.848 32.9078 13.112C32.6838 12.376 32.4038 11.632 32.0678 10.88C31.7318 10.112 31.3798 9.352 31.0118 8.6C30.6438 7.832 30.3238 7.112 30.0518 6.44C29.7798 5.752 29.5878 5.136 29.4758 4.592C29.3638 4.048 29.3958 3.6 29.5718 3.248H34.5638V3.392C34.4358 3.392 34.3238 3.408 34.2278 3.44C34.1318 3.456 34.0438 3.552 33.9637 3.728C33.8998 3.904 33.8438 4.184 33.7958 4.568C33.7638 4.952 33.7478 5.504 33.7478 6.224V17.024C33.7478 17.728 33.7638 18.272 33.7958 18.656C33.8438 19.04 33.8998 19.32 33.9637 19.496C34.0438 19.672 34.1318 19.776 34.2278 19.808C34.3238 19.824 34.4358 19.832 34.5638 19.832V20H29.8838L24.3158 6.416C24.1238 6.192 23.9638 6.088 23.8358 6.104C23.7238 6.12 23.6278 6.224 23.5478 6.416C23.4838 6.592 23.4358 6.832 23.4038 7.136C23.3878 7.424 23.3798 7.736 23.3798 8.072ZM48.0047 9.2C48.0047 9.328 47.9647 9.424 47.8847 9.488C47.8047 9.552 47.7167 9.584 47.6207 9.584C47.5407 9.584 47.4607 9.552 47.3807 9.488C47.3167 9.424 47.2847 9.328 47.2847 9.2C47.2847 8.816 47.2287 8.384 47.1167 7.904C47.0047 7.424 46.8127 6.952 46.5407 6.488C46.2847 6.008 45.9487 5.56 45.5327 5.144C45.1327 4.728 44.6367 4.392 44.0447 4.136V17.024C44.0447 17.728 44.0607 18.272 44.0927 18.656C44.1407 19.04 44.2047 19.32 44.2847 19.496C44.3647 19.672 44.4527 19.776 44.5487 19.808C44.6447 19.824 44.7567 19.832 44.8847 19.832V20H38.4287V19.832C38.5407 19.832 38.6447 19.824 38.7407 19.808C38.8527 19.776 38.9407 19.672 39.0047 19.496C39.0847 19.32 39.1407 19.04 39.1727 18.656C39.2207 18.272 39.2447 17.728 39.2447 17.024V4.136C38.6687 4.392 38.1727 4.728 37.7567 5.144C37.3407 5.56 36.9967 6.008 36.7247 6.488C36.4687 6.952 36.2847 7.424 36.1727 7.904C36.0607 8.384 36.0047 8.816 36.0047 9.2C36.0047 9.328 35.9647 9.424 35.8847 9.488C35.8207 9.552 35.7407 9.584 35.6447 9.584C35.5647 9.584 35.4847 9.552 35.4047 9.488C35.3247 9.424 35.2847 9.328 35.2847 9.2V3.248H48.0047V9.2ZM50.4568 12.272C50.5848 12.96 50.8008 13.616 51.1048 14.24C51.4088 14.864 51.6648 15.488 51.8728 16.112C52.0808 16.736 52.1768 17.368 52.1608 18.008C52.1608 18.648 51.9208 19.312 51.4408 20H45.8728V19.832C45.9848 19.832 46.0968 19.824 46.2088 19.808C46.3208 19.776 46.4408 19.672 46.5688 19.496C46.6968 19.32 46.8328 19.04 46.9768 18.656C47.1368 18.272 47.3288 17.728 47.5528 17.024L51.5368 3.968L51.3208 3.248H56.0968L60.3208 17.024C60.5288 17.728 60.7128 18.272 60.8728 18.656C61.0328 19.04 61.1768 19.32 61.3048 19.496C61.4328 19.672 61.5448 19.776 61.6408 19.808C61.7528 19.824 61.8728 19.832 62.0008 19.832V20H55.5688V19.832C55.6808 19.832 55.7768 19.824 55.8568 19.808C55.9528 19.776 56.0088 19.672 56.0248 19.496C56.0568 19.32 56.0328 19.04 55.9528 18.656C55.8728 18.272 55.7288 17.728 55.5208 17.024L54.0808 12.272H50.4568ZM50.5768 9.92C50.4808 10.24 50.4168 10.552 50.3848 10.856C50.3528 11.144 50.3528 11.432 50.3848 11.72H53.9128L51.9688 5.36L50.5768 9.92ZM68.0398 20.12C66.9518 20.12 65.9918 19.88 65.1598 19.4C64.3438 18.904 63.6638 18.256 63.1198 17.456C62.5918 16.656 62.1918 15.752 61.9198 14.744C61.6478 13.72 61.5038 12.68 61.4878 11.624C61.4878 10.552 61.6238 9.512 61.8958 8.504C62.1678 7.48 62.5598 6.568 63.0718 5.768C63.5998 4.968 64.2558 4.328 65.0398 3.848C65.8398 3.352 66.7598 3.104 67.7998 3.104C68.5198 3.104 69.1358 3.168 69.6478 3.296C70.1598 3.408 70.5998 3.512 70.9678 3.608C71.3358 3.688 71.6478 3.72 71.9038 3.704C72.1758 3.688 72.4238 3.536 72.6478 3.248C72.7278 3.152 72.8078 3.12 72.8878 3.152C72.9838 3.168 73.0318 3.216 73.0318 3.296C73.0318 3.536 72.9678 3.904 72.8398 4.4C72.7278 4.88 72.5678 5.368 72.3598 5.864C72.1518 6.344 71.9038 6.776 71.6158 7.16C71.3278 7.528 71.0078 7.712 70.6558 7.712C70.3838 7.712 70.1518 7.616 69.9598 7.424C69.7678 7.232 69.5838 6.992 69.4078 6.704C69.2478 6.416 69.0878 6.112 68.9278 5.792C68.7678 5.456 68.5838 5.144 68.3758 4.856C68.1838 4.568 67.9518 4.328 67.6798 4.136C67.4078 3.944 67.0878 3.848 66.7198 3.848C66.3678 3.848 66.0558 4.032 65.7838 4.4C65.5278 4.768 65.3118 5.248 65.1358 5.84C64.9758 6.432 64.8638 7.112 64.7998 7.88C64.7518 8.632 64.7678 9.408 64.8478 10.208C64.9278 11.008 65.0718 11.792 65.2798 12.56C65.5038 13.312 65.7998 13.984 66.1678 14.576C66.5518 15.168 67.0158 15.648 67.5598 16.016C68.1198 16.384 68.7678 16.568 69.5038 16.568C70.1118 16.568 70.6158 16.392 71.0158 16.04C71.4158 15.688 71.7198 15.256 71.9278 14.744C72.1358 14.216 72.2558 13.648 72.2878 13.04C72.3358 12.432 72.3038 11.872 72.1918 11.36C72.0958 10.832 71.9278 10.392 71.6878 10.04C71.4638 9.688 71.1918 9.512 70.8718 9.512C70.5838 9.512 70.3918 9.648 70.2958 9.92C70.1998 10.192 70.1118 10.496 70.0318 10.832C69.9518 11.152 69.8318 11.448 69.6718 11.72C69.5118 11.992 69.2318 12.128 68.8318 12.128C68.4798 12.128 68.1598 12.008 67.8718 11.768C67.5838 11.528 67.3358 11.24 67.1278 10.904C66.9198 10.552 66.7598 10.2 66.6478 9.848C66.5358 9.48 66.4798 9.176 66.4798 8.936C66.4798 8.856 66.5198 8.808 66.5998 8.792C66.6958 8.776 66.7838 8.808 66.8638 8.888C67.0878 9.176 67.2878 9.328 67.4638 9.344C67.6398 9.36 67.8558 9.328 68.1118 9.248C68.3838 9.152 68.7278 9.048 69.1438 8.936C69.5598 8.808 70.1278 8.744 70.8478 8.744C71.5678 8.744 72.1358 9.024 72.5518 9.584C72.9678 10.144 73.2318 10.848 73.3438 11.696C73.4718 12.544 73.4478 13.456 73.2718 14.432C73.1118 15.408 72.8078 16.32 72.3598 17.168C71.9118 18.016 71.3198 18.72 70.5838 19.28C69.8638 19.84 69.0158 20.12 68.0398 20.12ZM86.7139 15.536C86.7619 15.568 86.7619 15.704 86.7139 15.944C86.6659 16.184 86.5539 16.48 86.3779 16.832C86.2179 17.168 85.9859 17.528 85.6819 17.912C85.3779 18.296 85.0019 18.656 84.5539 18.992C84.1219 19.312 83.6019 19.584 82.9939 19.808C82.4019 20.016 81.7219 20.12 80.9539 20.12C79.8659 20.12 78.9059 19.88 78.0739 19.4C77.2579 18.904 76.5779 18.256 76.0339 17.456C75.5059 16.656 75.1059 15.752 74.8339 14.744C74.5619 13.72 74.4259 12.68 74.4259 11.624C74.4259 10.552 74.5539 9.512 74.8099 8.504C75.0819 7.48 75.4819 6.568 76.0099 5.768C76.5379 4.968 77.1939 4.328 77.9779 3.848C78.7779 3.352 79.6979 3.104 80.7379 3.104C81.4579 3.104 82.0659 3.168 82.5619 3.296C83.0739 3.408 83.5139 3.512 83.8819 3.608C84.2499 3.688 84.5619 3.72 84.8179 3.704C85.0899 3.688 85.3379 3.536 85.5619 3.248C85.6419 3.152 85.7219 3.12 85.8019 3.152C85.8979 3.168 85.9459 3.216 85.9459 3.296C85.9459 3.536 85.8899 3.904 85.7779 4.4C85.6659 4.88 85.5059 5.368 85.2979 5.864C85.0899 6.344 84.8419 6.776 84.5539 7.16C84.2659 7.528 83.9459 7.712 83.5939 7.712C83.3219 7.712 83.0819 7.616 82.8739 7.424C82.6819 7.232 82.4979 6.992 82.3219 6.704C82.1619 6.416 82.0019 6.112 81.8419 5.792C81.6819 5.456 81.4979 5.144 81.2899 4.856C81.0979 4.568 80.8659 4.328 80.5939 4.136C80.3379 3.944 80.0259 3.848 79.6579 3.848C79.2739 3.848 78.9459 4.008 78.6739 4.328C78.4019 4.648 78.1859 5.08 78.0259 5.624C77.8659 6.152 77.7619 6.768 77.7139 7.472C77.6659 8.16 77.6739 8.888 77.7379 9.656C78.0259 9.4 78.3859 9.232 78.8179 9.152C79.2499 9.072 79.7059 9.04 80.1859 9.056C80.6659 9.056 81.1539 9.08 81.6499 9.128C82.1459 9.176 82.6019 9.208 83.0179 9.224C83.4499 9.224 83.8179 9.184 84.1219 9.104C84.4419 9.024 84.6659 8.856 84.7939 8.6C84.8579 8.488 84.9379 8.448 85.0339 8.48C85.1299 8.512 85.1779 8.568 85.1779 8.648C85.1779 8.888 85.1459 9.192 85.0819 9.56C85.0179 9.912 84.8979 10.256 84.7219 10.592C84.5459 10.928 84.3059 11.224 84.0019 11.48C83.6979 11.72 83.3059 11.84 82.8259 11.84C82.3779 11.84 81.9539 11.768 81.5539 11.624C81.1699 11.464 80.8099 11.28 80.4739 11.072C80.1539 10.864 79.8579 10.656 79.5859 10.448C79.3139 10.24 79.0659 10.072 78.8419 9.944C78.6179 9.816 78.4179 9.76 78.2419 9.776C78.0819 9.792 77.9379 9.92 77.8099 10.16C77.9219 11.04 78.1059 11.912 78.3619 12.776C78.6339 13.64 78.9859 14.416 79.4179 15.104C79.8659 15.776 80.3939 16.32 81.0019 16.736C81.6099 17.152 82.3059 17.36 83.0899 17.36C83.6659 17.36 84.1539 17.256 84.5539 17.048C84.9699 16.84 85.3219 16.616 85.6099 16.376C85.8979 16.136 86.1299 15.928 86.3059 15.752C86.4819 15.56 86.6179 15.488 86.7139 15.536Z" fill="white"/>
</svg>
