<?xml version="1.0" standalone="no"?>
<!DOCTYPE svg PUBLIC "-//W3C//DTD SVG 20010904//EN"
 "http://www.w3.org/TR/2001/REC-SVG-20010904/DTD/svg10.dtd">
<svg version="1.0" xmlns="http://www.w3.org/2000/svg"
 width="128.000000pt" height="128.000000pt" viewBox="0 0 128.000000 128.000000"
 preserveAspectRatio="xMidYMid meet">

<g transform="translate(0.000000,128.000000) scale(0.100000,-0.100000)"
fill="#ffb300" stroke="none">
<path d="M1043 1119 c-14 -57 -52 -114 -83 -124 -26 -8 -26 -22 0 -30 31 -10
69 -67 83 -124 6 -28 14 -51 17 -51 3 0 11 23 17 51 14 57 52 114 83 124 26 8
26 22 0 30 -31 10 -69 67 -83 124 -6 28 -14 51 -17 51 -3 0 -11 -23 -17 -51z"/>
<path d="M630 1102 c0 -49 -37 -177 -70 -242 -17 -34 -49 -81 -72 -106 -42
-46 -145 -104 -185 -104 -12 0 -23 -4 -23 -10 0 -5 11 -10 23 -10 40 0 143
-58 185 -104 23 -25 55 -72 72 -106 33 -65 70 -193 70 -242 0 -15 5 -28 10
-28 6 0 10 13 10 28 0 49 37 177 70 242 17 34 49 81 72 106 42 46 145 104 185
104 12 0 23 5 23 10 0 6 -11 10 -23 10 -40 0 -143 58 -185 104 -23 25 -55 72
-72 106 -33 65 -70 193 -70 242 0 15 -4 28 -10 28 -5 0 -10 -13 -10 -28z"/>
<path d="M203 439 c-14 -57 -52 -114 -83 -124 -26 -8 -26 -22 0 -30 31 -10 69
-67 83 -124 6 -28 14 -51 17 -51 3 0 11 23 17 51 14 57 52 114 83 124 26 8 26
22 0 30 -31 10 -69 67 -83 124 -6 28 -14 51 -17 51 -3 0 -11 -23 -17 -51z"/>
</g>
</svg>
